<mxfile host="Electron" agent="Mozilla/5.0 (Windows NT 10.0; Win64; x64) AppleWebKit/537.36 (KHTML, like Gecko) draw.io/24.7.8 Chrome/128.0.6613.36 Electron/32.0.1 Safari/537.36" version="24.7.8">
  <diagram name="Page-1" id="-c6Ry725GxhYZqOuj7hc">
    <mxGraphModel dx="1644" dy="519" grid="1" gridSize="10" guides="1" tooltips="1" connect="1" arrows="1" fold="1" page="1" pageScale="1" pageWidth="850" pageHeight="1100" math="0" shadow="0">
      <root>
        <mxCell id="0" />
        <mxCell id="1" parent="0" />
        <mxCell id="g0l_ifj-5Xz2NjAmxus5-56" value="" style="rounded=0;whiteSpace=wrap;html=1;connectable=0;fillColor=#f8cecc;strokeColor=#b85450;labelBackgroundColor=none;" parent="1" vertex="1">
          <mxGeometry x="-240" y="460" width="710" height="190" as="geometry" />
        </mxCell>
        <mxCell id="g0l_ifj-5Xz2NjAmxus5-57" value="" style="rounded=0;whiteSpace=wrap;html=1;connectable=0;labelBackgroundColor=none;" parent="1" vertex="1">
          <mxGeometry x="-200" y="500" width="210" height="100" as="geometry" />
        </mxCell>
        <mxCell id="g0l_ifj-5Xz2NjAmxus5-58" value="0x0000 0000 - 0x0000 BFFF" style="text;html=1;align=center;verticalAlign=middle;resizable=0;points=[];autosize=1;strokeColor=none;fillColor=none;connectable=0;labelBackgroundColor=none;" parent="1" vertex="1">
          <mxGeometry x="-210" y="595" width="180" height="30" as="geometry" />
        </mxCell>
        <mxCell id="g0l_ifj-5Xz2NjAmxus5-59" value="0x0002 0000 - 0x0002 7FFF" style="text;html=1;align=center;verticalAlign=middle;resizable=0;points=[];autosize=1;strokeColor=none;fillColor=none;connectable=0;labelBackgroundColor=none;" parent="1" vertex="1">
          <mxGeometry x="10" y="595" width="170" height="30" as="geometry" />
        </mxCell>
        <mxCell id="g0l_ifj-5Xz2NjAmxus5-60" value="0x0002 8000 - 0x0004 7FFF" style="text;html=1;align=center;verticalAlign=middle;resizable=0;points=[];autosize=1;strokeColor=none;fillColor=none;connectable=0;labelBackgroundColor=none;" parent="1" vertex="1">
          <mxGeometry x="230" y="595" width="170" height="30" as="geometry" />
        </mxCell>
        <mxCell id="g0l_ifj-5Xz2NjAmxus5-61" value="" style="rounded=0;whiteSpace=wrap;html=1;connectable=0;fillColor=#d5e8d4;strokeColor=#82b366;labelBackgroundColor=none;" parent="1" vertex="1">
          <mxGeometry x="-240" y="720" width="720" height="180" as="geometry" />
        </mxCell>
        <mxCell id="g0l_ifj-5Xz2NjAmxus5-62" value="0x4000 0000 - 0xBFFF FFFF" style="text;html=1;align=center;verticalAlign=middle;resizable=0;points=[];autosize=1;strokeColor=none;fillColor=none;connectable=0;labelBackgroundColor=none;" parent="1" vertex="1">
          <mxGeometry x="-160" y="720" width="180" height="30" as="geometry" />
        </mxCell>
        <mxCell id="g0l_ifj-5Xz2NjAmxus5-63" value="D1H" style="text;html=1;align=center;verticalAlign=middle;whiteSpace=wrap;rounded=0;labelBackgroundColor=none;" parent="1" vertex="1">
          <mxGeometry x="-240" y="460" width="60" height="30" as="geometry" />
        </mxCell>
        <mxCell id="g0l_ifj-5Xz2NjAmxus5-71" value="&lt;div style=&quot;forced-color-adjust: none; color: rgb(0, 0, 0); font-family: Helvetica; font-size: 12px; font-style: normal; font-variant-ligatures: normal; font-variant-caps: normal; font-weight: 400; letter-spacing: normal; orphans: 2; text-align: center; text-indent: 0px; text-transform: none; widows: 2; word-spacing: 0px; -webkit-text-stroke-width: 0px; white-space: normal; text-decoration-thickness: initial; text-decoration-style: initial; text-decoration-color: initial;&quot;&gt;DRAM 2 Gb&lt;/div&gt;" style="text;whiteSpace=wrap;html=1;labelBackgroundColor=none;" parent="1" vertex="1">
          <mxGeometry x="-220" y="720" width="70" height="30" as="geometry" />
        </mxCell>
        <mxCell id="g0l_ifj-5Xz2NjAmxus5-76" value="&lt;span style=&quot;color: rgb(0, 0, 0); font-family: Helvetica; font-size: 12px; font-style: normal; font-variant-ligatures: normal; font-variant-caps: normal; font-weight: 400; letter-spacing: normal; orphans: 2; text-align: center; text-indent: 0px; text-transform: none; widows: 2; word-spacing: 0px; -webkit-text-stroke-width: 0px; white-space: normal; text-decoration-thickness: initial; text-decoration-style: initial; text-decoration-color: initial; float: none; display: inline !important;&quot;&gt;BROM (&lt;/span&gt;&lt;span style=&quot;text-align: center;&quot;&gt;48 Kb)&lt;/span&gt;" style="text;whiteSpace=wrap;html=1;labelBackgroundColor=none;" parent="1" vertex="1">
          <mxGeometry x="-200" y="500" width="100" height="30" as="geometry" />
        </mxCell>
        <mxCell id="g0l_ifj-5Xz2NjAmxus5-81" value="" style="rounded=0;whiteSpace=wrap;html=1;connectable=0;labelBackgroundColor=none;" parent="1" vertex="1">
          <mxGeometry x="20" y="500" width="210" height="100" as="geometry" />
        </mxCell>
        <mxCell id="g0l_ifj-5Xz2NjAmxus5-82" value="" style="rounded=0;whiteSpace=wrap;html=1;connectable=0;labelBackgroundColor=none;" parent="1" vertex="1">
          <mxGeometry x="240" y="500" width="210" height="100" as="geometry" />
        </mxCell>
        <mxCell id="g0l_ifj-5Xz2NjAmxus5-83" value="&lt;span style=&quot;color: rgb(0, 0, 0); font-family: Helvetica; font-size: 12px; font-style: normal; font-variant-ligatures: normal; font-variant-caps: normal; font-weight: 400; letter-spacing: normal; orphans: 2; text-align: center; text-indent: 0px; text-transform: none; widows: 2; word-spacing: 0px; -webkit-text-stroke-width: 0px; white-space: normal; text-decoration-thickness: initial; text-decoration-style: initial; text-decoration-color: initial; float: none; display: inline !important;&quot;&gt;SRAM A1 (&lt;/span&gt;&lt;span style=&quot;text-align: center;&quot;&gt;32 Kb)&lt;/span&gt;" style="text;whiteSpace=wrap;html=1;labelBackgroundColor=none;" parent="1" vertex="1">
          <mxGeometry x="20" y="500" width="105" height="30" as="geometry" />
        </mxCell>
        <mxCell id="g0l_ifj-5Xz2NjAmxus5-84" value="&lt;span style=&quot;color: rgb(0, 0, 0); font-family: Helvetica; font-size: 12px; font-style: normal; font-variant-ligatures: normal; font-variant-caps: normal; font-weight: 400; letter-spacing: normal; orphans: 2; text-align: center; text-indent: 0px; text-transform: none; widows: 2; word-spacing: 0px; -webkit-text-stroke-width: 0px; white-space: normal; text-decoration-thickness: initial; text-decoration-style: initial; text-decoration-color: initial; float: none; display: inline !important;&quot;&gt;DSP RAM (&lt;/span&gt;&lt;span style=&quot;text-align: center;&quot;&gt;128 Kb)&lt;/span&gt;" style="text;whiteSpace=wrap;html=1;labelBackgroundColor=none;" parent="1" vertex="1">
          <mxGeometry x="240" y="500" width="110" height="30" as="geometry" />
        </mxCell>
        <mxCell id="g0l_ifj-5Xz2NjAmxus5-91" value="0. FEL" style="text;html=1;align=center;verticalAlign=middle;whiteSpace=wrap;rounded=0;fontSize=24;labelBackgroundColor=none;" parent="1" vertex="1">
          <mxGeometry x="-400" y="370" width="260" height="30" as="geometry" />
        </mxCell>
        <mxCell id="g0l_ifj-5Xz2NjAmxus5-92" value="" style="rounded=0;whiteSpace=wrap;html=1;connectable=0;labelBackgroundColor=none;" parent="1" vertex="1">
          <mxGeometry x="30" y="527.5" width="180" height="55" as="geometry" />
        </mxCell>
        <UserObject label="&lt;div style=&quot;text-align: center;&quot;&gt;&lt;span style=&quot;background-color: initial;&quot;&gt;FEL program&lt;/span&gt;&lt;/div&gt;" id="g0l_ifj-5Xz2NjAmxus5-93">
          <mxCell style="text;whiteSpace=wrap;html=1;labelBackgroundColor=none;" parent="1" vertex="1">
            <mxGeometry x="40" y="532.5" width="200" height="50" as="geometry" />
          </mxCell>
        </UserObject>
        <mxCell id="g0l_ifj-5Xz2NjAmxus5-96" value="" style="rounded=0;whiteSpace=wrap;html=1;connectable=0;labelBackgroundColor=none;" parent="1" vertex="1">
          <mxGeometry x="34" y="760" width="182" height="100" as="geometry" />
        </mxCell>
        <mxCell id="g0l_ifj-5Xz2NjAmxus5-97" value="&lt;span style=&quot;color: rgb(0, 0, 0); font-family: Helvetica; font-size: 12px; font-style: normal; font-variant-ligatures: normal; font-variant-caps: normal; font-weight: 400; letter-spacing: normal; orphans: 2; text-align: center; text-indent: 0px; text-transform: none; widows: 2; word-spacing: 0px; -webkit-text-stroke-width: 0px; white-space: normal; text-decoration-thickness: initial; text-decoration-style: initial; text-decoration-color: initial; float: none; display: inline !important;&quot;&gt;0x40000000&lt;/span&gt;" style="text;whiteSpace=wrap;html=1;labelBackgroundColor=none;" parent="1" vertex="1">
          <mxGeometry x="34" y="860" width="100" height="30" as="geometry" />
        </mxCell>
        <UserObject label="&lt;div style=&quot;forced-color-adjust: none; color: rgb(0, 0, 0); font-family: Helvetica; font-size: 12px; font-style: normal; font-variant-ligatures: normal; font-variant-caps: normal; font-weight: 400; letter-spacing: normal; orphans: 2; text-align: left; text-indent: 0px; text-transform: none; widows: 2; word-spacing: 0px; -webkit-text-stroke-width: 0px; white-space: normal; text-decoration-thickness: initial; text-decoration-style: initial; text-decoration-color: initial;&quot;&gt;Program:&lt;/div&gt;&lt;div style=&quot;forced-color-adjust: none; color: rgb(0, 0, 0); font-family: Helvetica; font-size: 12px; font-style: normal; font-variant-ligatures: normal; font-variant-caps: normal; font-weight: 400; letter-spacing: normal; orphans: 2; text-align: left; text-indent: 0px; text-transform: none; widows: 2; word-spacing: 0px; -webkit-text-stroke-width: 0px; white-space: normal; text-decoration-thickness: initial; text-decoration-style: initial; text-decoration-color: initial;&quot;&gt;&lt;span style=&quot;background-color: initial;&quot;&gt;app.bin&lt;/span&gt;&lt;/div&gt;" id="g0l_ifj-5Xz2NjAmxus5-98">
          <mxCell style="text;whiteSpace=wrap;html=1;labelBackgroundColor=none;" parent="1" vertex="1">
            <mxGeometry x="34" y="760" width="152" height="30" as="geometry" />
          </mxCell>
        </UserObject>
        <mxCell id="g0l_ifj-5Xz2NjAmxus5-107" value="" style="endArrow=classic;html=1;rounded=0;labelBackgroundColor=none;" parent="1" edge="1">
          <mxGeometry width="50" height="50" relative="1" as="geometry">
            <mxPoint x="124.09000000000002" y="425" as="sourcePoint" />
            <mxPoint x="124.09000000000002" y="525" as="targetPoint" />
          </mxGeometry>
        </mxCell>
        <mxCell id="g0l_ifj-5Xz2NjAmxus5-108" value="1" style="ellipse;whiteSpace=wrap;html=1;aspect=fixed;fontStyle=1;connectable=0;labelBackgroundColor=none;" parent="1" vertex="1">
          <mxGeometry x="110" y="394" width="30" height="30" as="geometry" />
        </mxCell>
        <mxCell id="HcQrMUixn4I407vx37lF-1" value="" style="image;points=[];aspect=fixed;html=1;align=center;shadow=0;dashed=0;image=img/lib/allied_telesis/computer_and_terminals/Laptop.svg;flipH=1;imageBackground=none;imageBorder=none;connectable=0;" parent="1" vertex="1">
          <mxGeometry x="680" y="458" width="182" height="184.6" as="geometry" />
        </mxCell>
        <mxCell id="HcQrMUixn4I407vx37lF-2" value="" style="endArrow=classic;startArrow=classic;html=1;rounded=0;" parent="1" edge="1">
          <mxGeometry width="50" height="50" relative="1" as="geometry">
            <mxPoint x="470" y="560" as="sourcePoint" />
            <mxPoint x="680" y="560" as="targetPoint" />
          </mxGeometry>
        </mxCell>
        <mxCell id="HcQrMUixn4I407vx37lF-3" value="&lt;font style=&quot;font-size: 24px;&quot;&gt;USB&lt;/font&gt;" style="text;html=1;align=center;verticalAlign=middle;whiteSpace=wrap;rounded=0;" parent="1" vertex="1">
          <mxGeometry x="558" y="521" width="60" height="30" as="geometry" />
        </mxCell>
        <mxCell id="HcQrMUixn4I407vx37lF-4" value="" style="rounded=0;whiteSpace=wrap;html=1;connectable=0;labelBackgroundColor=none;" parent="1" vertex="1">
          <mxGeometry x="890" y="495" width="182" height="100" as="geometry" />
        </mxCell>
        <UserObject label="&lt;div style=&quot;forced-color-adjust: none; color: rgb(0, 0, 0); font-family: Helvetica; font-size: 12px; font-style: normal; font-variant-ligatures: normal; font-variant-caps: normal; font-weight: 400; letter-spacing: normal; orphans: 2; text-align: left; text-indent: 0px; text-transform: none; widows: 2; word-spacing: 0px; -webkit-text-stroke-width: 0px; white-space: normal; text-decoration-thickness: initial; text-decoration-style: initial; text-decoration-color: initial;&quot;&gt;Program:&lt;/div&gt;&lt;div style=&quot;forced-color-adjust: none; color: rgb(0, 0, 0); font-family: Helvetica; font-size: 12px; font-style: normal; font-variant-ligatures: normal; font-variant-caps: normal; font-weight: 400; letter-spacing: normal; orphans: 2; text-align: left; text-indent: 0px; text-transform: none; widows: 2; word-spacing: 0px; -webkit-text-stroke-width: 0px; white-space: normal; text-decoration-thickness: initial; text-decoration-style: initial; text-decoration-color: initial;&quot;&gt;&lt;span style=&quot;background-color: initial;&quot;&gt;app.bin&lt;/span&gt;&lt;/div&gt;" id="HcQrMUixn4I407vx37lF-5">
          <mxCell style="text;whiteSpace=wrap;html=1;labelBackgroundColor=none;connectable=0;" parent="1" vertex="1">
            <mxGeometry x="890" y="495" width="152" height="30" as="geometry" />
          </mxCell>
        </UserObject>
        <mxCell id="HcQrMUixn4I407vx37lF-7" value="" style="endArrow=classic;html=1;rounded=0;" parent="1" edge="1">
          <mxGeometry width="50" height="50" relative="1" as="geometry">
            <mxPoint x="980" y="600" as="sourcePoint" />
            <mxPoint x="220" y="810" as="targetPoint" />
            <Array as="points">
              <mxPoint x="980" y="810" />
            </Array>
          </mxGeometry>
        </mxCell>
        <mxCell id="HcQrMUixn4I407vx37lF-8" value="3" style="ellipse;whiteSpace=wrap;html=1;aspect=fixed;fontStyle=1;connectable=0;labelBackgroundColor=none;" parent="1" vertex="1">
          <mxGeometry x="110" y="670" width="30" height="30" as="geometry" />
        </mxCell>
        <mxCell id="HcQrMUixn4I407vx37lF-9" value="" style="endArrow=classic;html=1;rounded=0;labelBackgroundColor=none;" parent="1" edge="1">
          <mxGeometry width="50" height="50" relative="1" as="geometry">
            <mxPoint x="123.18000000000004" y="700" as="sourcePoint" />
            <mxPoint x="123" y="760" as="targetPoint" />
          </mxGeometry>
        </mxCell>
        <mxCell id="HcQrMUixn4I407vx37lF-10" value="2" style="ellipse;whiteSpace=wrap;html=1;aspect=fixed;fontStyle=1;connectable=0;labelBackgroundColor=none;" parent="1" vertex="1">
          <mxGeometry x="600" y="795" width="30" height="30" as="geometry" />
        </mxCell>
      </root>
    </mxGraphModel>
  </diagram>
</mxfile>
